{"title":"Comedy Nights with Kapil - Sunidhi Chauhan - 28th September - HD","uid":8976065,"size":1203246387,"categoryP":"video","categoryS":"hd___tv_shows","magnet":"?xt=urn:btih:100d9a456860bef9581120c1e14b501b47eaa22d&amp;dn=Comedy+Nights+with+Kapil+-+Sunidhi+Chauhan+-+28th+September+-+HD&amp;tr=udp%3A%2F%2Ftracker.openbittorrent.com%3A80&amp;tr=udp%3A%2F%2Fopen.demonii.com%3A1337&amp;tr=udp%3A%2F%2Ftracker.coppersurfer.tk%3A6969&amp;tr=udp%3A%2F%2Fexodus.desync.com%3A6969","seeders":1,"leechers":0,"uploader":"Palash995","files":1,"time":1380443182,"description":"In this episode, Kapil disguises himself as Inspector Shamsher. He keeps telling people about his bravery. He also interacts with public asking their problem against the police. Later, Sunidhi Chauhan comes to the show as the special guest. The audience gets a chance to interact with Sunidhi and sing with her. Watch the complete show to know what happens next. Renowned, actor-comedian Kapil Sharma makes his debut as a TV show producer with his new show Comedy Nights With Kapil. He will be seen multiple roles of an actor, scriptwriter and producer in his production debut. Already famous for his amazing comic timing and his talent to dig humor out of any situation, he is ready present everyday life in a fresh ad unique way.\n\nMedia Info:-\n\nGeneral \nComplete name : Comedy Nights with Kapil - Sunidhi Chauhan - 28th September - HD 720p - {GreatPalash}.mp4 \nFormat : MPEG-4 \nFormat profile : Base Media / Version 2 \nCodec ID : mp42 \nFile size : 1.12 GiB \nDuration : 1h 3mn \nOverall bit rate mode : Variable \nOverall bit rate : 2 538 Kbps \nEncoded date : UTC 2013-09-27 23:21:18 \nTagged date : UTC 2013-09-27 23:21:18 \n\nVideo \nID : 1 \nFormat : AVC \nFormat/Info : Advanced Video Codec \nFormat profile : &lt;a class=&quot;__cf_email__&quot; href=&quot;/cdn-cgi/l/email-protection&quot; data-cfemail=&quot;4901202e2109057a6778&quot;&gt;[email&amp;#160;protected]&lt;/a&gt;&lt;script cf-hash='f9e31' type=&quot;text/javascript&quot;&gt;\n/* &lt;![CDATA[ */!function(){try{var t=&quot;currentScript&quot;in document?document.currentScript:function(){for(var t=document.getElementsByTagName(&quot;script&quot;),e=t.length;e--;)if(t[e].getAttribute(&quot;cf-hash&quot;))return t[e]}();if(t&amp;&amp;t.previousSibling){var e,r,n,i,c=t.previousSibling,a=c.getAttribute(&quot;data-cfemail&quot;);if(a){for(e=&quot;&quot;,r=parseInt(a.substr(0,2),16),n=2;a.length-n;n+=2)i=parseInt(a.substr(n,2),16)^r,e+=String.fromCharCode(i);e=document.createTextNode(e),c.parentNode.replaceChild(e,c)}}}catch(u){}}();/* ]]&gt; */&lt;/script&gt; \nFormat settings, CABAC : Yes \nFormat settings, ReFrames : 1 frame \nCodec ID : avc1 \nCodec ID/Info : Advanced Video Coding \nDuration : 1h 3mn \nBit rate : 2 344 Kbps \nMaximum bit rate : 4 633 Kbps \nWidth : 1 280 pixels \nHeight : 720 pixels \nDisplay aspect ratio : 16:9 \nFrame rate mode : Constant \nFrame rate : 25.000 fps \nColor space : YUV \nChroma subsampling : 4:2:0 \nBit depth : 8 bits \nScan type : Progressive \nBits/(Pixel*Frame) : 0.102 \nStream size : 1.03 GiB (92%) \n\n\nAudio \nID : 2 \nFormat : AAC \nFormat/Info : Advanced Audio Codec \nFormat profile : LC \nCodec ID : 40 \nDuration : 1h 3mn \nBit rate mode : Variable \nBit rate : 192 Kbps \nMaximum bit rate : 201 Kbps \nChannel(s) : 2 channels \nChannel positions : Front: L R \nSampling rate : 44.1 KHz \nCompression mode : Lossy \nStream size : 86.8 MiB (8%) \nEncoded date : UTC 2013-09-27 23:25:41 \nTagged date : UTC 2013-09-27 23:28:11 \n\nScreenshots:-\n\n[IMG]http://imageshack.us/a/img593/1633/hxx0.jpg[/IMG]\n\n[IMG]http://imageshack.us/a/img38/8948/plzx.png[/IMG]\n\n[IMG]http://imageshack.us/a/img824/6659/gjds.png[/IMG]\n\n[IMG]http://imageshack.us/a/img28/2702/1as4.png[/IMG]\n\n[IMG]http://imageshack.us/a/img850/7329/fww2.png[/IMG]\n\n[IMG]http://imageshack.us/a/img543/7807/845x.png[/IMG]","torrent":{"xt":"urn:btih:100d9a456860bef9581120c1e14b501b47eaa22d","amp;dn":"Comedy+Nights+with+Kapil+-+Sunidhi+Chauhan+-+28th+September+-+HD","amp;tr":["udp%3A%2F%2Ftracker.openbittorrent.com%3A80","udp%3A%2F%2Fopen.demonii.com%3A1337","udp%3A%2F%2Ftracker.coppersurfer.tk%3A6969","udp%3A%2F%2Fexodus.desync.com%3A6969"],"infoHash":"100d9a456860bef9581120c1e14b501b47eaa22d","infoHashBuffer":{"type":"Buffer","data":[16,13,154,69,104,96,190,249,88,17,32,193,225,75,80,27,71,234,162,45]},"announce":[],"urlList":[]}}